<svg width="12" height="16" viewBox="0 0 12 16" fill="none" xmlns="http://www.w3.org/2000/svg">
<g id="Location">
<rect width="12" height="16" fill="white"/>
<path id="Vector" d="M6 13C6 13 1 10.6154 1 6.92308C1 3.84615 3.5 2 6 2C8.5 2 11 3.84615 11 6.92308C11 10.6154 6 13 6 13ZM6 8.76923C6.49728 8.76923 6.97419 8.57473 7.32583 8.2285C7.67746 7.88228 7.875 7.41271 7.875 6.92308C7.875 6.43345 7.67746 5.96387 7.32583 5.61765C6.97419 5.27143 6.49728 5.07692 6 5.07692C5.50272 5.07692 5.02581 5.27143 4.67417 5.61765C4.32254 5.96387 4.125 6.43345 4.125 6.92308C4.125 7.41271 4.32254 7.88228 4.67417 8.2285C5.02581 8.57473 5.50272 8.76923 6 8.76923Z" stroke="#2C3744" stroke-width="1.2"/>
</g>
</svg>
