<svg width="12" height="16" viewBox="0 0 12 16" fill="none" xmlns="http://www.w3.org/2000/svg">
<g id="Phone">
<rect width="12" height="16" fill="white"/>
<path id="Vector" d="M4.77354 3.82284L5.17917 4.54972C5.5448 5.20598 5.39792 6.06599 4.82167 6.64287C4.82167 6.64287 4.12167 7.34224 5.39042 8.61038C6.6573 9.87726 7.3573 9.17913 7.3573 9.17913C7.93417 8.60225 8.7948 8.45538 9.45043 8.82101L10.1773 9.22726C11.1679 9.77976 11.2848 11.1685 10.4142 12.0398C9.89105 12.5623 9.2498 12.9698 8.54167 12.996C7.34917 13.0417 5.32354 12.7398 3.29167 10.7085C1.26041 8.67663 0.958538 6.65099 1.00416 5.45848C1.03104 4.75035 1.43791 4.1091 1.96041 3.58597C2.83167 2.71534 4 2.5 4.77354 3.82284Z" stroke="#2C3744" stroke-width="1.2" stroke-linecap="round"/>
</g>
</svg>
