<svg width="20" height="20" viewBox="0 0 20 20" fill="none" xmlns="http://www.w3.org/2000/svg">
<path d="M10.5007 10.0007L7.25065 6.75069C7.09787 6.59791 7.02148 6.40347 7.02148 6.16736C7.02148 5.93125 7.09787 5.7368 7.25065 5.58403C7.40343 5.43125 7.59787 5.35486 7.83398 5.35486C8.0701 5.35486 8.26454 5.43125 8.41732 5.58403L12.2507 9.41736C12.334 9.50069 12.393 9.59097 12.4277 9.68819C12.4625 9.78541 12.4798 9.88958 12.4798 10.0007C12.4798 10.1118 12.4625 10.216 12.4277 10.3132C12.393 10.4104 12.334 10.5007 12.2507 10.584L8.41732 14.4174C8.26454 14.5701 8.0701 14.6465 7.83398 14.6465C7.59787 14.6465 7.40343 14.5701 7.25065 14.4174C7.09787 14.2646 7.02148 14.0701 7.02148 13.834C7.02148 13.5979 7.09787 13.4035 7.25065 13.2507L10.5007 10.0007Z" fill="#2C3744"/>
</svg>
