<svg width="20" height="20" viewBox="0 0 20 20" fill="none" xmlns="http://www.w3.org/2000/svg">
<path d="M9.00065 10.0007L12.2507 13.2507C12.4034 13.4035 12.4798 13.5979 12.4798 13.834C12.4798 14.0701 12.4034 14.2646 12.2507 14.4174C12.0979 14.5701 11.9034 14.6465 11.6673 14.6465C11.4312 14.6465 11.2368 14.5701 11.084 14.4174L7.25065 10.584C7.16732 10.5007 7.10829 10.4104 7.07357 10.3132C7.03885 10.216 7.02148 10.1118 7.02148 10.0007C7.02148 9.88958 7.03885 9.78541 7.07357 9.68819C7.10829 9.59097 7.16732 9.50069 7.25065 9.41736L11.084 5.58403C11.2368 5.43125 11.4312 5.35486 11.6673 5.35486C11.9034 5.35486 12.0979 5.43125 12.2507 5.58403C12.4034 5.7368 12.4798 5.93125 12.4798 6.16736C12.4798 6.40347 12.4034 6.59791 12.2507 6.75069L9.00065 10.0007Z" fill="#2C3744"/>
</svg>
