<svg width="20" height="20" viewBox="0 0 20 20" fill="none" xmlns="http://www.w3.org/2000/svg">
<path d="M10.0003 12.4587C9.88921 12.4587 9.78505 12.4413 9.68783 12.4066C9.5906 12.3718 9.50033 12.3128 9.41699 12.2295L5.58366 8.39615C5.43088 8.24338 5.35449 8.04893 5.35449 7.81282C5.35449 7.57671 5.43088 7.38226 5.58366 7.22949C5.73644 7.07671 5.93088 7.00032 6.16699 7.00032C6.4031 7.00032 6.59755 7.07671 6.75033 7.22949L10.0003 10.4795L13.2503 7.22949C13.4031 7.07671 13.5975 7.00032 13.8337 7.00032C14.0698 7.00032 14.2642 7.07671 14.417 7.22949C14.5698 7.38226 14.6462 7.57671 14.6462 7.81282C14.6462 8.04893 14.5698 8.24338 14.417 8.39615L10.5837 12.2295C10.5003 12.3128 10.41 12.3718 10.3128 12.4066C10.2156 12.4413 10.1114 12.4587 10.0003 12.4587Z" fill="#2C3744"/>
</svg>
