<svg width="20" height="20" viewBox="0 0 20 20" fill="none" xmlns="http://www.w3.org/2000/svg">
<path d="M10.0008 8.9795L6.75081 12.2295C6.59804 12.3823 6.40359 12.4587 6.16748 12.4587C5.93137 12.4587 5.73692 12.3823 5.58415 12.2295C5.43137 12.0767 5.35498 11.8823 5.35498 11.6462C5.35498 11.4101 5.43137 11.2156 5.58415 11.0628L9.41748 7.2295C9.50081 7.14617 9.59109 7.08714 9.68831 7.05242C9.78554 7.0177 9.8897 7.00034 10.0008 7.00034C10.1119 7.00034 10.2161 7.0177 10.3133 7.05242C10.4105 7.08714 10.5008 7.14617 10.5841 7.2295L14.4175 11.0628C14.5703 11.2156 14.6466 11.4101 14.6466 11.6462C14.6466 11.8823 14.5703 12.0767 14.4175 12.2295C14.2647 12.3823 14.0703 12.4587 13.8341 12.4587C13.598 12.4587 13.4036 12.3823 13.2508 12.2295L10.0008 8.9795Z" fill="#2C3744"/>
</svg>
