<svg width="16" height="17" viewBox="0 0 16 17" fill="none" xmlns="http://www.w3.org/2000/svg">
<path fill-rule="evenodd" clip-rule="evenodd" d="M2.3994 2.89541C2.65513 2.64223 3.00198 2.5 3.36364 2.5H12.6364C12.8154 2.5 12.9928 2.53492 13.1582 2.60276C13.3236 2.67061 13.474 2.77005 13.6006 2.89541C13.7272 3.02076 13.8277 3.16959 13.8962 3.33338C13.9647 3.49717 14 3.67272 14 3.85V13.15C14 13.3273 13.9647 13.5028 13.8962 13.6666C13.8277 13.8304 13.7272 13.9792 13.6006 14.1046C13.474 14.23 13.3236 14.3294 13.1582 14.3972C12.9928 14.4651 12.8154 14.5 12.6364 14.5H3.36364C3.00198 14.5 2.65513 14.3578 2.3994 14.1046C2.14367 13.8514 2 13.508 2 13.15V3.85C2 3.49196 2.14367 3.14858 2.3994 2.89541ZM3.04222 3.5318C2.95698 3.61619 2.90909 3.73065 2.90909 3.85V13.15C2.90909 13.2693 2.95698 13.3838 3.04222 13.4682C3.12747 13.5526 3.24308 13.6 3.36364 13.6H12.6364C12.7569 13.6 12.8725 13.5526 12.9578 13.4682C13.043 13.3838 13.0909 13.2693 13.0909 13.15V3.85C13.0909 3.73065 13.043 3.61619 12.9578 3.5318C12.8725 3.44741 12.7569 3.4 12.6364 3.4H3.36364C3.24308 3.4 3.12747 3.44741 3.04222 3.5318ZM9.96344 6.4118H5.35962V5.4998H9.96344V6.4118ZM7.71217 10.0598H5.35962V9.1478H8.5823V9.20252L7.71217 10.0598ZM9.55831 8.2358H5.35962V7.3238H9.96344V7.83452L9.55831 8.2358ZM11.5379 7.9166L12.1272 8.50028C12.1736 8.54716 12.1996 8.61019 12.1996 8.67584C12.1996 8.74149 12.1736 8.80452 12.1272 8.8514L11.6669 9.3074L10.7231 8.3726L11.1835 7.9166C11.2308 7.87065 11.2944 7.84491 11.3607 7.84491C11.427 7.84491 11.4906 7.87065 11.5379 7.9166ZM8.60992 12.3398H7.66153V11.4004L10.4514 8.63708L11.3952 9.57188L8.60992 12.3398Z" fill="#2C3744"/>
</svg>
