<svg width="16" height="17" viewBox="0 0 16 17" fill="none" xmlns="http://www.w3.org/2000/svg">
<path d="M2.87213 13.5C2.53537 13.5 2.25033 13.3833 2.01699 13.15C1.78366 12.9166 1.66699 12.6316 1.66699 12.2948V4.70515C1.66699 4.36839 1.78366 4.08335 2.01699 3.85002C2.25033 3.61668 2.53537 3.50002 2.87213 3.50002H6.03364C6.19432 3.50002 6.3488 3.53122 6.49709 3.59362C6.64538 3.656 6.77423 3.7419 6.88363 3.8513L7.86568 4.83335H13.1285C13.4652 4.83335 13.7503 4.95002 13.9836 5.18335C14.217 5.41668 14.3336 5.70173 14.3336 6.03848V7.92435C14.1738 7.8611 14.0088 7.81987 13.8388 7.80063C13.6687 7.7814 13.5003 7.78204 13.3336 7.80257V6.03848C13.3336 5.98719 13.3123 5.94018 13.2695 5.89743C13.2268 5.8547 13.1798 5.83333 13.1285 5.83333H7.45673L6.12339 4.5H2.87213C2.81229 4.5 2.76314 4.51923 2.72468 4.5577C2.68621 4.59617 2.66698 4.64532 2.66698 4.70515V12.2948C2.66698 12.3461 2.68834 12.3932 2.73108 12.4359C2.77382 12.4786 2.82084 12.5 2.87213 12.5H7.99004L7.94903 12.541V13.5H2.87213ZM9.41058 14.2307V13.3231C9.41058 13.2427 9.4251 13.1662 9.45416 13.0936C9.48321 13.0209 9.52894 12.9534 9.59134 12.891L13.0298 9.46923C13.1127 9.38633 13.2024 9.328 13.299 9.29423C13.3956 9.26048 13.4922 9.2436 13.5888 9.2436C13.6922 9.2436 13.7932 9.26325 13.892 9.30257C13.9907 9.34189 14.0794 9.40086 14.158 9.47948L14.7746 10.1026C14.8464 10.1855 14.902 10.2752 14.9413 10.3718C14.9806 10.4684 15.0003 10.565 15.0003 10.6615C15.0003 10.7581 14.9823 10.8564 14.9464 10.9564C14.9105 11.0564 14.8533 11.1478 14.7746 11.2307L11.3529 14.6525C11.2905 14.7149 11.2229 14.7607 11.1503 14.7897C11.0776 14.8188 11.0012 14.8333 10.9208 14.8333H10.0131C9.84134 14.8333 9.69796 14.7758 9.58301 14.6609C9.46805 14.5459 9.41058 14.4025 9.41058 14.2307ZM10.2054 14.0384H10.8388L13.0029 11.8641L12.6965 11.5474L12.3862 11.2346L10.2054 13.4051V14.0384ZM12.6965 11.5474L12.3862 11.2346L13.0029 11.8641L12.6965 11.5474Z" fill="#2C3744"/>
</svg>
