<svg width="16" height="17" viewBox="0 0 16 17" fill="none" xmlns="http://www.w3.org/2000/svg">
<path fill-rule="evenodd" clip-rule="evenodd" d="M2.3994 2.89541C2.65513 2.64223 3.00198 2.5 3.36364 2.5H12.6364C12.8154 2.5 12.9928 2.53492 13.1582 2.60276C13.3236 2.67061 13.474 2.77005 13.6006 2.89541C13.7272 3.02076 13.8277 3.16959 13.8962 3.33338C13.9647 3.49717 14 3.67272 14 3.85V13.15C14 13.3273 13.9647 13.5028 13.8962 13.6666C13.8277 13.8304 13.7272 13.9792 13.6006 14.1046C13.474 14.23 13.3236 14.3294 13.1582 14.3972C12.9928 14.4651 12.8154 14.5 12.6364 14.5H3.36364C3.00198 14.5 2.65513 14.3578 2.3994 14.1046C2.14367 13.8514 2 13.508 2 13.15V3.85C2 3.49196 2.14367 3.14858 2.3994 2.89541ZM3.04222 3.5318C2.95698 3.61619 2.90909 3.73065 2.90909 3.85V13.15C2.90909 13.2693 2.95698 13.3838 3.04222 13.4682C3.12747 13.5526 3.24308 13.6 3.36364 13.6H12.6364C12.7569 13.6 12.8725 13.5526 12.9578 13.4682C13.043 13.3838 13.0909 13.2693 13.0909 13.15V3.85C13.0909 3.73065 13.043 3.61619 12.9578 3.5318C12.8725 3.44741 12.7569 3.4 12.6364 3.4H3.36364C3.24308 3.4 3.12747 3.44741 3.04222 3.5318ZM8.68857 6.16962C8.86871 6.33383 8.95878 6.55172 8.95878 6.8233C8.95878 7.00646 8.90664 7.17541 8.80235 7.33015C8.69805 7.48488 8.48473 7.70436 8.16238 7.98857C7.90956 8.21594 7.72942 8.43225 7.62197 8.63751C7.51452 8.84278 7.46079 9.06857 7.46079 9.31488C7.46079 9.46015 7.51294 9.58172 7.61723 9.67962C7.72152 9.77751 7.84635 9.82646 7.99172 9.82646C8.1371 9.82646 8.26193 9.77594 8.36622 9.67488C8.47051 9.57383 8.5353 9.44751 8.56058 9.29594C8.58586 9.13804 8.63959 8.99751 8.72176 8.87436C8.80393 8.7512 8.96194 8.57909 9.1958 8.35804C9.51816 8.04857 9.73938 7.78015 9.85947 7.55278C9.97956 7.32541 10.0396 7.06962 10.0396 6.78541C10.0396 6.2233 9.84841 5.76857 9.46601 5.4212C9.08361 5.07383 8.58586 4.90015 7.97276 4.90015C7.59985 4.90015 7.25695 4.98383 6.94408 5.1512C6.63121 5.31857 6.37364 5.55383 6.17138 5.85699C6.10186 5.96436 6.07183 6.07804 6.08132 6.19804C6.0908 6.31804 6.13978 6.41909 6.22827 6.5012C6.35468 6.61488 6.5048 6.66067 6.67861 6.63857C6.85243 6.61646 6.98991 6.53278 7.09104 6.38751C7.19849 6.23594 7.32648 6.12067 7.47501 6.04173C7.62355 5.96278 7.78946 5.9233 7.97276 5.9233C8.26983 5.9233 8.50844 6.00541 8.68857 6.16962ZM7.43709 11.8775C7.58562 12.0259 7.76418 12.1001 7.97276 12.1001C8.18134 12.1001 8.3599 12.0259 8.50844 11.8775C8.65697 11.7291 8.73124 11.5507 8.73124 11.3423C8.73124 11.1338 8.65697 10.9554 8.50844 10.807C8.3599 10.6586 8.18134 10.5844 7.97276 10.5844C7.76418 10.5844 7.58562 10.6586 7.43709 10.807C7.28855 10.9554 7.21429 11.1338 7.21429 11.3423C7.21429 11.5507 7.28855 11.7291 7.43709 11.8775Z" fill="#2C3744"/>
</svg>
