<svg width="16" height="17" viewBox="0 0 16 17" fill="none" xmlns="http://www.w3.org/2000/svg">
<path d="M8.00031 12.3333C9.06512 12.3333 9.97021 11.9606 10.7156 11.2153C11.4609 10.4699 11.8336 9.56481 11.8336 8.5C11.8336 7.59744 11.5552 6.7998 10.9984 6.10706C10.4415 5.41433 9.7251 4.96711 8.84904 4.7654C8.66613 4.74317 8.50673 4.79125 8.37083 4.90963C8.23494 5.028 8.16699 5.17864 8.16699 5.36155V8.5641L5.90546 10.8256C5.76956 10.9615 5.7093 11.1199 5.72469 11.3006C5.74007 11.4814 5.82126 11.6265 5.96828 11.7359C6.26485 11.9487 6.58783 12.1015 6.93721 12.1942C7.28659 12.2869 7.64095 12.3333 8.00031 12.3333ZM8.00143 14.8333C7.12547 14.8333 6.30211 14.6671 5.53136 14.3346C4.76059 14.0022 4.09014 13.551 3.51999 12.9811C2.94984 12.4112 2.49846 11.7411 2.16588 10.9707C1.83329 10.2003 1.66699 9.37707 1.66699 8.50111C1.66699 7.62516 1.83321 6.8018 2.16566 6.03105C2.4981 5.26028 2.94927 4.58982 3.51916 4.01968C4.08906 3.44952 4.75922 2.99815 5.52964 2.66556C6.30005 2.33297 7.12324 2.16668 7.99919 2.16668C8.87515 2.16668 9.6985 2.3329 10.4693 2.66535C11.24 2.99779 11.9105 3.44896 12.4806 4.01885C13.0508 4.58875 13.5022 5.25891 13.8347 6.02933C14.1673 6.79974 14.3336 7.62292 14.3336 8.49888C14.3336 9.37484 14.1674 10.1982 13.835 10.9689C13.5025 11.7397 13.0513 12.4102 12.4815 12.9803C11.9116 13.5505 11.2414 14.0018 10.471 14.3344C9.70057 14.667 8.87738 14.8333 8.00143 14.8333ZM8.00031 13.8333C9.4892 13.8333 10.7503 13.3167 11.7836 12.2833C12.817 11.25 13.3336 9.98889 13.3336 8.5C13.3336 7.01111 12.817 5.75 11.7836 4.71666C10.7503 3.68333 9.4892 3.16666 8.00031 3.16666C6.51142 3.16666 5.25031 3.68333 4.21698 4.71666C3.18364 5.75 2.66698 7.01111 2.66698 8.5C2.66698 9.98889 3.18364 11.25 4.21698 12.2833C5.25031 13.3167 6.51142 13.8333 8.00031 13.8333Z" fill="#2C3744"/>
</svg>
