<svg width="16" height="17" viewBox="0 0 16 17" fill="none" xmlns="http://www.w3.org/2000/svg">
<path fill-rule="evenodd" clip-rule="evenodd" d="M2.3994 2.89541C2.65513 2.64223 3.00198 2.5 3.36364 2.5H12.6364C12.8154 2.5 12.9928 2.53492 13.1582 2.60276C13.3236 2.67061 13.474 2.77005 13.6006 2.89541C13.7272 3.02076 13.8277 3.16959 13.8962 3.33338C13.9647 3.49717 14 3.67272 14 3.85V13.15C14 13.3273 13.9647 13.5028 13.8962 13.6666C13.8277 13.8304 13.7272 13.9792 13.6006 14.1046C13.474 14.23 13.3236 14.3294 13.1582 14.3972C12.9928 14.4651 12.8154 14.5 12.6364 14.5H3.36364C3.00198 14.5 2.65513 14.3578 2.3994 14.1046C2.14367 13.8514 2 13.508 2 13.15V3.85C2 3.49196 2.14367 3.14858 2.3994 2.89541ZM3.04222 3.5318C2.95698 3.61619 2.90909 3.73065 2.90909 3.85V13.15C2.90909 13.2693 2.95698 13.3838 3.04222 13.4682C3.12747 13.5526 3.24308 13.6 3.36364 13.6H12.6364C12.7569 13.6 12.8725 13.5526 12.9578 13.4682C13.043 13.3838 13.0909 13.2693 13.0909 13.15V3.85C13.0909 3.73065 13.043 3.61619 12.9578 3.5318C12.8725 3.44741 12.7569 3.4 12.6364 3.4H3.36364C3.24308 3.4 3.12747 3.44741 3.04222 3.5318ZM6.29964 5.82744C6.16028 5.74956 5.99009 5.75135 5.85239 5.83214C5.7147 5.91293 5.63012 6.06062 5.63012 6.22026V10.7803C5.63012 10.9399 5.7147 11.0876 5.85239 11.1684C5.99009 11.2492 6.16028 11.251 6.29964 11.1731L10.3796 8.89309C10.5219 8.81356 10.6101 8.66329 10.6101 8.50026C10.6101 8.33724 10.5219 8.18697 10.3796 8.10744L6.29964 5.82744ZM6.53012 10.0133V6.98723L9.23765 8.50026L6.53012 10.0133Z" fill="#2C3744"/>
</svg>
