<svg width="24" height="24" viewBox="0 0 24 24" fill="none" xmlns="http://www.w3.org/2000/svg">
<g id="Icon/Expend_more">
<path id="Vector" d="M11.9969 14.9504C11.8635 14.9504 11.7385 14.9296 11.6219 14.8879C11.5052 14.8462 11.3969 14.7754 11.2969 14.6754L6.69688 10.0754C6.51354 9.89206 6.42188 9.65872 6.42188 9.37539C6.42188 9.09206 6.51354 8.85872 6.69688 8.67539C6.88021 8.49206 7.11354 8.40039 7.39688 8.40039C7.68021 8.40039 7.91354 8.49206 8.09688 8.67539L11.9969 12.5754L15.8969 8.67539C16.0802 8.49206 16.3135 8.40039 16.5969 8.40039C16.8802 8.40039 17.1135 8.49206 17.2969 8.67539C17.4802 8.85872 17.5719 9.09206 17.5719 9.37539C17.5719 9.65872 17.4802 9.89206 17.2969 10.0754L12.6969 14.6754C12.5969 14.7754 12.4885 14.8462 12.3719 14.8879C12.2552 14.9296 12.1302 14.9504 11.9969 14.9504Z" fill="#8097B1"/>
</g>
</svg>
