<svg width="24" height="24" viewBox="0 0 24 24" fill="none" xmlns="http://www.w3.org/2000/svg">
<g id="Icon/Left">
<path id="Vector" d="M10.8008 12.0008L14.7008 15.9008C14.8841 16.0841 14.9758 16.3174 14.9758 16.6008C14.9758 16.8841 14.8841 17.1174 14.7008 17.3008C14.5174 17.4841 14.2841 17.5758 14.0008 17.5758C13.7174 17.5758 13.4841 17.4841 13.3008 17.3008L8.70078 12.7008C8.60078 12.6008 8.52995 12.4924 8.48828 12.3758C8.44661 12.2591 8.42578 12.1341 8.42578 12.0008C8.42578 11.8674 8.44661 11.7424 8.48828 11.6258C8.52995 11.5091 8.60078 11.4008 8.70078 11.3008L13.3008 6.70078C13.4841 6.51745 13.7174 6.42578 14.0008 6.42578C14.2841 6.42578 14.5174 6.51745 14.7008 6.70078C14.8841 6.88411 14.9758 7.11745 14.9758 7.40078C14.9758 7.68411 14.8841 7.91745 14.7008 8.10078L10.8008 12.0008Z" fill="#576F8A"/>
</g>
</svg>
