<svg width="24" height="24" viewBox="0 0 24 24" fill="none" xmlns="http://www.w3.org/2000/svg">
<g id="Icon/Chatbot_hover">
<path id="Vector5" d="M19.813 10.3673C20.2269 9.14157 20.0844 7.79885 19.4225 6.68397C18.4272 4.97393 16.4262 4.09415 14.4721 4.50818C13.6027 3.54177 12.3537 2.99221 11.0442 3.00008C9.04673 2.99558 7.27439 4.26462 6.65984 6.14003C5.37661 6.39935 4.26899 7.19195 3.6208 8.31526C2.61807 10.0208 2.84666 12.1707 4.18633 13.6333C3.77247 14.859 3.91498 16.2017 4.57682 17.3166C5.57217 19.0266 7.5731 19.9064 9.52729 19.4924C10.3961 20.4588 11.6457 21.0083 12.9551 20.9999C14.9538 21.005 16.7267 19.7348 17.3412 17.8577C18.6244 17.5984 19.7321 16.8058 20.3803 15.6825C21.3819 13.9769 21.1527 11.8287 19.8136 10.3662L19.813 10.3673ZM12.9562 19.8237C12.1565 19.8248 11.3817 19.5487 10.7678 19.043C10.7957 19.0283 10.8442 19.0019 10.8755 18.9828L14.508 16.9127C14.6938 16.8087 14.8078 16.6135 14.8067 16.4025V11.3494L16.3419 12.2242C16.3584 12.232 16.3692 12.2478 16.3715 12.2658V16.4503C16.3692 18.3111 14.842 19.8198 12.9562 19.8237ZM5.61147 16.7282C5.21072 16.0453 5.0665 15.2449 5.20388 14.468C5.23067 14.4838 5.27799 14.5125 5.31162 14.5316L8.94409 16.6016C9.12821 16.708 9.35624 16.708 9.54093 16.6016L13.9755 14.0748V15.8242C13.9766 15.8422 13.9681 15.8597 13.9538 15.8709L10.282 17.9629C8.64652 18.8922 6.5578 18.3398 5.61204 16.7282L5.61147 16.7282ZM4.65549 8.9042C5.05452 8.2202 5.68447 7.69704 6.43466 7.42535C6.43466 7.45629 6.43296 7.51085 6.43296 7.5491V11.6898C6.43181 11.9001 6.54583 12.0953 6.73109 12.1994L11.1657 14.7257L9.63047 15.6004C9.61508 15.6105 9.59569 15.6122 9.57859 15.6049L5.90622 13.5112C4.27412 12.5785 3.71432 10.518 4.65492 8.90476L4.65549 8.9042ZM17.2688 11.8006L12.8342 9.27376L14.3694 8.39964C14.3848 8.38951 14.4042 8.38782 14.4213 8.39514L18.0937 10.4871C19.7286 11.4192 20.289 13.4831 19.3444 15.0964C18.9448 15.7792 18.3154 16.3024 17.5658 16.5746V12.3102C17.5675 12.0998 17.4541 11.9052 17.2694 11.8006H17.2688ZM18.7966 9.53139C18.7698 9.51507 18.7225 9.48695 18.6888 9.46782L15.0564 7.39779C14.8722 7.29147 14.6442 7.29147 14.4595 7.39779L10.0249 9.92458V8.17516C10.0238 8.15716 10.0324 8.13972 10.0466 8.12847L13.7184 6.03819C15.3539 5.10721 17.4449 5.66131 18.3878 7.27572C18.7863 7.95751 18.9305 8.7557 18.7954 9.53139H18.7966ZM9.19038 12.6494L7.65462 11.7747C7.63809 11.7668 7.62726 11.7511 7.62498 11.7331V7.54854C7.62612 5.6855 9.15789 4.17571 11.046 4.17684C11.8446 4.17684 12.6176 4.45359 13.2316 4.95759C13.2036 4.97221 13.1558 4.99865 13.1238 5.01777L9.49137 7.08785C9.30554 7.19191 9.19152 7.38654 9.19267 7.59747L9.19038 12.6483V12.6494ZM10.0244 10.8752L11.9997 9.74964L13.9749 10.8747V13.1253L11.9997 14.2503L10.0244 13.1253V10.8752Z" fill="#0B70DF"/>
</g>
</svg>
