<svg width="24" height="24" viewBox="0 0 24 24" fill="none" xmlns="http://www.w3.org/2000/svg">
<g id="Frame 427318344">
<path id="Vector3" d="M3 21V4.8C3 4.305 3.1764 3.8811 3.5292 3.5283C3.882 3.1755 4.3056 2.9994 4.8 3H19.2C19.695 3 20.1189 3.1764 20.4717 3.5292C20.8245 3.882 21.0006 4.3056 21 4.8V15.6C21 16.095 20.8236 16.5189 20.4708 16.8717C20.118 17.2245 19.6944 17.4006 19.2 17.4H6.6L3 21ZM12 14.7C12.255 14.7 12.4689 14.6136 12.6417 14.4408C12.8145 14.268 12.9006 14.0544 12.9 13.8C12.9 13.545 12.8136 13.3311 12.6408 13.1583C12.468 12.9855 12.2544 12.8994 12 12.9C11.745 12.9 11.5311 12.9864 11.3583 13.1592C11.1855 13.332 11.0994 13.5456 11.1 13.8C11.1 14.055 11.1864 14.2689 11.3592 14.4417C11.532 14.6145 11.7456 14.7006 12 14.7ZM11.1 11.1H12.9V5.7H11.1V11.1Z" fill="#0086FF"/>
</g>
</svg>
